<svg width="28" height="26" viewBox="0 0 28 26" fill="none" xmlns="http://www.w3.org/2000/svg">
<path d="M8.66666 15.3333C9.40304 15.3333 9.99999 14.7364 9.99999 14C9.99999 13.2636 9.40304 12.6667 8.66666 12.6667C7.93028 12.6667 7.33332 13.2636 7.33332 14C7.33332 14.7364 7.93028 15.3333 8.66666 15.3333Z" fill="#F6F7FC"/>
<path d="M15.3333 14C15.3333 14.7364 14.7364 15.3333 14 15.3333C13.2636 15.3333 12.6667 14.7364 12.6667 14C12.6667 13.2636 13.2636 12.6667 14 12.6667C14.7364 12.6667 15.3333 13.2636 15.3333 14Z" fill="#F6F7FC"/>
<path d="M19.3333 15.3333C20.0697 15.3333 20.6667 14.7364 20.6667 14C20.6667 13.2636 20.0697 12.6667 19.3333 12.6667C18.5969 12.6667 18 13.2636 18 14C18 14.7364 18.5969 15.3333 19.3333 15.3333Z" fill="#F6F7FC"/>
<path d="M9.99999 19.3333C9.99999 20.0697 9.40304 20.6667 8.66666 20.6667C7.93028 20.6667 7.33332 20.0697 7.33332 19.3333C7.33332 18.5969 7.93028 18 8.66666 18C9.40304 18 9.99999 18.5969 9.99999 19.3333Z" fill="#F6F7FC"/>
<path d="M14 20.6667C14.7364 20.6667 15.3333 20.0697 15.3333 19.3333C15.3333 18.5969 14.7364 18 14 18C13.2636 18 12.6667 18.5969 12.6667 19.3333C12.6667 20.0697 13.2636 20.6667 14 20.6667Z" fill="#F6F7FC"/>
<path fill-rule="evenodd" clip-rule="evenodd" d="M8.66666 1.99999C8.66666 1.26361 8.0697 0.666656 7.33332 0.666656C6.59694 0.666656 5.99999 1.26361 5.99999 1.99999H3.33332C1.86056 1.99999 0.666656 3.1939 0.666656 4.66666V23.3333C0.666656 24.8061 1.86056 26 3.33332 26H24.6667C26.1394 26 27.3333 24.8061 27.3333 23.3333V4.66666C27.3333 3.1939 26.1394 1.99999 24.6667 1.99999H22C22 1.26361 21.403 0.666656 20.6667 0.666656C19.9303 0.666656 19.3333 1.26361 19.3333 1.99999H8.66666ZM3.33332 7.33332V4.66666H24.6667V7.33332H3.33332ZM3.33332 9.99999V23.3333H16.8955L24.6667 15.5621V9.99999H3.33332ZM24.6667 19.3334L20.6667 23.3333H24.6667V19.3334Z" fill="#F6F7FC"/>
</svg>
